<svg t="1623912002227" class="icon" viewBox="0 0 1024 1024" version="1.1" xmlns="http://www.w3.org/2000/svg" p-id="6045" width="128" height="128"><path d="M386.17088 404.45041777l0 233.0168889L92.5696 637.46730667l0-233.01688889 293.60128-1e-8m46.60337778-46.60337777L45.96622222 357.84704001l0 326.22364444 386.80803556 0 0-326.22364445z" fill="#000000" p-id="6046"></path><path d="M931.4304 96.86812445l0 838.8608L92.5696 935.72892445l0-838.8608 838.8608 0m0-46.60337778L92.5696 50.26474667c-25.73904555 0-46.60337778 20.86433223-46.60337777 46.60337778l-1e-8 838.8608c0 25.73904555 20.86433223 46.60337778 46.60337778 46.60337777l838.8608 0c25.73904555 0 46.60337778-20.86433223 46.60337778-46.60337777l-1e-8-838.8608c0-25.73904555-20.86433223-46.60337778-46.60337777-46.60337778z" fill="#000000" p-id="6047"></path><path d="M917.44938667 404.45041778l0 233.0168889-372.82702222 0 0-233.0168889 372.82702222 0m46.60337778-46.60337778L498.01898667 357.84704l0 326.22364445 466.03377778 0 0-326.22364445z" fill="#000000" p-id="6048"></path></svg>
