<?xml version="1.0" standalone="no"?>
<!DOCTYPE svg PUBLIC "-//W3C//DTD SVG 20010904//EN"
 "http://www.w3.org/TR/2001/REC-SVG-20010904/DTD/svg10.dtd">
<svg version="1.0" xmlns="http://www.w3.org/2000/svg"
 width="260.000000pt" height="260.000000pt" viewBox="0 0 260.000000 260.000000"
 preserveAspectRatio="xMidYMid meet">

<g transform="translate(0.000000,260.000000) scale(0.100000,-0.100000)"
fill="#000000" stroke="none">
<path d="M1190 2594 c-518 -49 -958 -399 -1118 -889 -21 -64 -27 -92 -18 -97
35 -23 218 -89 225 -82 4 5 15 38 25 73 63 237 245 468 472 601 317 185 732
186 1043 3 68 -41 222 -161 228 -179 2 -6 -75 -67 -171 -135 -96 -68 -175
-126 -175 -129 -1 -6 868 -380 882 -380 4 0 7 229 7 509 l0 510 -159 -115
c-87 -62 -161 -114 -164 -114 -2 0 -34 29 -71 63 -179 172 -411 292 -656 341
-79 16 -274 27 -350 20z"/>
<path d="M4 721 c0 -281 2 -511 4 -511 2 0 76 52 164 115 l161 115 72 -69
c175 -166 372 -272 615 -331 126 -31 399 -35 527 -7 184 39 323 98 475 199
100 67 250 209 315 298 97 133 201 354 206 437 l2 36 -110 47 c-60 26 -111 46
-113 45 -2 -2 -10 -29 -18 -60 -9 -32 -32 -97 -53 -145 -136 -316 -428 -547
-771 -611 -84 -16 -276 -16 -360 0 -195 36 -381 129 -526 263 -24 22 -44 44
-44 47 0 4 79 63 175 131 96 68 171 127 167 131 -8 8 -846 369 -873 376 -14 4
-16 -44 -15 -506z"/>
</g>
</svg>
